<svg id="Layer_1" xmlns="http://www.w3.org/2000/svg" viewBox="0 0 1000 876.7"><style>.st0{fill:url(#Shape_1_)}.st1{fill:url(#Shape_2_)}.st2{fill:#ff3817}.st3{fill:#ff7900}.st4{fill:#dc0a1e}.st5{fill:url(#Shape_3_)}.st6{fill:url(#Shape_4_)}.st7{fill:url(#Shape_5_)}.st8{fill:#ff8a3b}.st9{fill:url(#Shape_6_)}.st10{fill:url(#Shape_7_)}.st11{fill:url(#Shape_8_)}</style><title>Logo</title><g id="Symbols"><g id="Logo_1_"><g id="T_1_" transform="translate(14.167 7.598)"><linearGradient id="Shape_1_" gradientUnits="userSpaceOnUse" x1="673.084" y1="295.011" x2="673.084" y2="131.596"><stop offset="0" stop-color="#FF3817"/><stop offset="1" stop-color="#FF6400"/></linearGradient><path id="Shape_29_" class="st0" d="M656.4 131.6l-39.7 69.6 53.5 93.8 59.2-35.4z"/><linearGradient id="Shape_2_" gradientUnits="userSpaceOnUse" x1="300.215" y1="295.011" x2="300.215" y2="131.596"><stop offset="0" stop-color="#FF3817"/><stop offset="1" stop-color="#FF6400"/></linearGradient><path id="Shape_28_" class="st1" d="M315.2 131.6l39.7 69.6-53.5 93.8-55.9-41.2z"/><path id="Rectangle-path_1_" class="st2" d="M451.2 201.2h68.7v528.7h-68.7z"/><path id="Shape_27_" class="st3" d="M315.2 131.6l39.7 69.6h261.8l39.7-69.6z"/></g><g id="J_1_" transform="translate(8.65 20.154)"><path id="J-5_1_" class="st4" d="M388 647.8v69.6h-67.3l-39.6-69.6z"/><path id="J-6_1_" class="st4" d="M701.6 647.8l-39.7 69.6h-67.7v-69.6z"/><linearGradient id="Shape_3_" gradientUnits="userSpaceOnUse" x1="215.587" y1="579.601" x2="215.587" y2="349.303"><stop offset="0" stop-color="#FF0032"/><stop offset="1" stop-color="#FF3817"/></linearGradient><path id="Shape_26_" class="st5" d="M189.4 349.3l-39.3 68.9 92 161.4 39-69.6z"/><linearGradient id="Shape_4_" gradientUnits="userSpaceOnUse" x1="767.113" y1="579.601" x2="767.113" y2="349.303"><stop offset="0" stop-color="#FF0032"/><stop offset="1" stop-color="#FF3817"/></linearGradient><path id="Shape_25_" class="st6" d="M793.3 349.3l39.3 68.9-92.1 161.4-38.9-69.6z"/><path id="Shape_24_" class="st4" d="M388 510v69.6H242.1l39-69.6z"/><path id="Shape_23_" class="st4" d="M594.2 510v69.6h146.3L701.6 510z"/><path id="J-7_1_" class="st3" d="M281.1 370.8l39.6 69.6H388v-69.6z"/><path id="J-8_1_" class="st3" d="M701.6 370.8H594.2v69.6h67.7z"/></g><g id="O_1_"><path id="Shape_22_" class="st3" d="M289.7 69.6L250 0h500l-39.7 69.6z"/><linearGradient id="Shape_5_" gradientUnits="userSpaceOnUse" x1="855.149" y1="438.359" x2="855.149"><stop offset="0" stop-color="#FF3817"/><stop offset="1" stop-color="#FF6400"/></linearGradient><path id="Shape_21_" class="st7" d="M1000 438.4h-79.4L710.3 69.6 750 0z"/><path id="Shape_20_" class="st8" d="M710.3 807.1l39.7 69.6 250-438.3h-79.4z"/><path id="Shape_19_" class="st4" d="M710.3 807.1l39.7 69.6H250l39.7-69.6z"/><path id="Shape_18_" class="st8" d="M79.4 438.4H0l250 438.3 39.7-69.6z"/><linearGradient id="Shape_6_" gradientUnits="userSpaceOnUse" x1="855.149" y1="876.718" x2="855.149" y2="438.359"><stop offset="0" stop-color="#FF0032"/><stop offset="1" stop-color="#FF3817"/></linearGradient><path id="Shape_17_" class="st9" d="M710.3 807.1l39.7 69.6 250-438.3h-79.4z"/><linearGradient id="Shape_7_" gradientUnits="userSpaceOnUse" x1="144.851" y1="876.718" x2="144.851" y2="438.359"><stop offset="0" stop-color="#FF0032"/><stop offset="1" stop-color="#FF3817"/></linearGradient><path id="Shape_16_" class="st10" d="M79.4 438.4H0l250 438.3 39.7-69.6z"/><linearGradient id="Shape_8_" gradientUnits="userSpaceOnUse" x1="144.851" y1="438.359" x2="144.851"><stop offset="0" stop-color="#FF3817"/><stop offset="1" stop-color="#FF6400"/></linearGradient><path id="Shape_15_" class="st11" d="M250 0l39.7 69.6L79.4 438.4H0z"/></g></g></g></svg>